<svg width="1382" height="709" viewBox="0 0 1382 709" xmlns="http://www.w3.org/2000/svg"><title>Page 1</title><g fill="none" fill-rule="evenodd" opacity=".3"><path d="M149.008 492.3c-8.934 4.15-18.892 6.468-29.392 6.468-14.03 0-27.094-4.138-38.039-11.26-10.35.723-31.796 5.376-31.796 5.376s5.294-23.268 6.921-33.604c-4.434-9.176-6.92-19.471-6.92-30.347 0-38.57 31.266-69.835 69.834-69.835 38.57 0 69.835 31.265 69.835 69.835 0 13.846-4.03 26.752-10.98 37.606" stroke="#005A8A" stroke-width="2"/><path fill="#005A8A" d="M177.415 464.423l-4.976-3.311 2.174 10.818 10.818-2.173-4.976-3.311"/><path d="M372.75 169.48a39.352 39.352 0 0 1-16.624 3.659 39.316 39.316 0 0 1-21.515-6.368c-5.855.409-17.984 3.04-17.984 3.04s2.994-13.16 3.915-19.006a39.33 39.33 0 0 1-3.915-17.165c0-21.814 17.685-39.5 39.499-39.5 21.815 0 39.499 17.686 39.499 39.5a39.317 39.317 0 0 1-6.21 21.27" stroke="#005A8A" stroke-width="2"/><path fill="#005A8A" d="M389.21 153.477l-3.373-2.245 1.475 7.337 7.335-1.474-3.373-2.245"/><path d="M1242.323 357.075a15.093 15.093 0 0 1-6.375 1.402 15.08 15.08 0 0 1-8.25-2.44c-2.245.155-6.896 1.165-6.896 1.165s1.148-5.047 1.5-7.288a15.104 15.104 0 0 1-1.5-6.583c0-8.364 6.782-15.146 15.146-15.146 8.365 0 15.146 6.782 15.146 15.146 0 3.004-.874 5.803-2.38 8.157" stroke="#005A8A" stroke-width="2"/><path fill="#005A8A" d="M1248.771 350.031l-2.354-1.566 1.03 5.117 5.116-1.028-2.354-1.566"/><path d="M556.155 652.82a41.465 41.465 0 0 1-17.518 3.854 41.42 41.42 0 0 1-22.671-6.71c-6.17.431-18.951 3.205-18.951 3.205s3.155-13.869 4.125-20.029a41.457 41.457 0 0 1-4.125-18.088c0-22.987 18.635-41.622 41.622-41.622 22.988 0 41.622 18.635 41.622 41.622a41.43 41.43 0 0 1-6.544 22.414" stroke="#005A8A" stroke-width="2"/><path fill="#005A8A" d="M573.5 635.956l-3.555-2.366 1.554 7.731 7.73-1.552-3.555-2.367"/><path d="M60.464 35.389a41.466 41.466 0 0 1-17.518 3.855 41.43 41.43 0 0 1-22.671-6.71c-6.17.43-18.951 3.204-18.951 3.204S4.477 21.87 5.448 15.71A41.463 41.463 0 0 1 1.324-2.378C1.324-25.365 19.959-44 42.945-44c22.988 0 41.622 18.635 41.622 41.622a41.424 41.424 0 0 1-6.543 22.414" stroke="#005A8A" stroke-width="2"/><path fill="#005A8A" d="M77.81 18.525l-3.557-2.366 1.554 7.731 7.731-1.552-3.556-2.367"/><path d="M1024.57 177.933a29.32 29.32 0 0 1-12.385 2.725 29.285 29.285 0 0 1-16.028-4.744c-4.362.305-13.4 2.265-13.4 2.265s2.232-9.804 2.918-14.16a29.299 29.299 0 0 1-2.917-12.787c0-16.252 13.175-29.426 29.427-29.426s29.426 13.174 29.426 29.426a29.292 29.292 0 0 1-4.626 15.847" stroke="#005A8A" stroke-width="2"/><path fill="#005A8A" d="M1036.785 165.944l-2.67-1.775 1.168 5.803 5.804-1.166-2.67-1.776"/><path d="M230.847 623.243c0-17.92-14.527-32.447-32.447-32.447s-32.447 14.527-32.447 32.447S180.48 655.69 198.4 655.69s32.447-14.527 32.447-32.447zm-78.6 99.614v-10.724c0-24.403 19.967-44.37 44.37-44.37h2.713c24.404 0 44.37 19.967 44.37 44.37v7.998m94.187-216.976c0-7.96-6.453-14.414-14.414-14.414-7.96 0-14.415 6.453-14.415 14.414 0 7.961 6.454 14.415 14.415 14.415 7.961 0 14.414-6.454 14.414-14.415zm-34.917 44.253v-4.764c0-10.84 8.87-19.71 19.711-19.71h1.205c10.841 0 19.711 8.87 19.711 19.71v3.553" stroke="#005A8A" stroke-width="2"/><path fill="#005A8A" d="M342.68 544.56l-3.008-.014 3.908 3.946 3.946-3.91-3.008-.012"/><path d="M854.212 326.215c0-7.979-6.468-14.446-14.446-14.446s-14.447 6.467-14.447 14.446c0 7.978 6.469 14.445 14.447 14.445 7.978 0 14.446-6.467 14.446-14.445zm-34.994 44.349v-4.774c0-10.865 8.89-19.754 19.754-19.754h1.207c10.865 0 19.755 8.889 19.755 19.754v3.56" stroke="#005A8A" stroke-width="2"/><path fill="#005A8A" d="M859.014 367.71l-3.015-.016 3.917 3.954 3.954-3.916-3.014-.014"/><path d="M631.947 154.737c0-6.35-5.147-11.498-11.498-11.498-6.351 0-11.498 5.148-11.498 11.498s5.147 11.498 11.498 11.498c6.35 0 11.498-5.148 11.498-11.498zm-27.854 35.3v-3.8c0-8.648 7.076-15.723 15.724-15.723h.962c8.647 0 15.722 7.075 15.722 15.723v2.835" stroke="#005A8A" stroke-width="2"/><path fill="#005A8A" d="M635.61 187.426l-2.92-.015 3.796 3.833 3.832-3.795-2.921-.015"/><path d="M1061.185 543.552c0-8.12-6.582-14.703-14.703-14.703-8.12 0-14.703 6.583-14.703 14.703s6.583 14.703 14.703 14.703c8.121 0 14.703-6.583 14.703-14.703zm-35.617 45.138v-4.858c0-11.058 9.048-20.106 20.106-20.106h1.23c11.059 0 20.106 9.048 20.106 20.106v3.625" stroke="#005A8A" stroke-width="2"/><path fill="#005A8A" d="M1066.074 585.785l-3.067-.015 3.986 4.025 4.024-3.986-3.068-.014"/><path d="M51.388 182.324v-17.682a4.383 4.383 0 0 0-4.37-4.37 4.383 4.383 0 0 0-4.37 4.37v25.2l-2.24-2.82-3.988-5.368a4.383 4.383 0 0 0-6.114-.903 4.383 4.383 0 0 0-.903 6.114l13.232 18.025m8.753-19.175V175.58a4.382 4.382 0 0 1 4.37-4.37 4.383 4.383 0 0 1 4.37 4.37v7.423m0 5.595v-9.365a4.382 4.382 0 0 1 4.37-4.37 4.383 4.383 0 0 1 4.37 4.37v10.128" stroke="#005A8A" stroke-width="2"/><path d="M68.868 194.93v-10.694a4.383 4.383 0 0 1 4.37-4.37 4.382 4.382 0 0 1 4.37 4.37v17.618m-21.402-35.565a10.84 10.84 0 0 0 1.8-6.596c-.319-6.004-5.445-10.613-11.448-10.295-6.005.318-10.614 5.444-10.296 11.448a10.84 10.84 0 0 0 2.04 5.792" stroke="#005A8A" stroke-width="2"/><path fill="#005A8A" d="M77.004 201.607l-1.976-.009 2.569 2.591 2.592-2.567-1.976-.009"/><path d="M1311.268 138.828v-17.682a4.383 4.383 0 0 0-4.37-4.37 4.383 4.383 0 0 0-4.37 4.37v25.2l-2.24-2.82-3.989-5.37a4.381 4.381 0 0 0-6.113-.902 4.384 4.384 0 0 0-.903 6.115l13.232 18.025m8.753-19.175v-10.136a4.383 4.383 0 0 1 4.37-4.37 4.383 4.383 0 0 1 4.37 4.37v7.423m0 5.596v-9.365a4.382 4.382 0 0 1 4.37-4.37 4.383 4.383 0 0 1 4.37 4.37v10.128m.001 5.569V140.74a4.384 4.384 0 0 1 4.37-4.371 4.384 4.384 0 0 1 4.37 4.37v17.619" stroke="#005A8A" stroke-width="2"/><path d="M1316.086 122.792a10.84 10.84 0 0 0 1.8-6.596c-.32-6.004-5.445-10.613-11.447-10.295-6.005.318-10.616 5.444-10.297 11.448a10.832 10.832 0 0 0 2.04 5.792" stroke="#005A8A" stroke-width="2"/><path fill="#005A8A" d="M1336.658 157.63l-2.715-.014 3.529 3.562 3.562-3.528-2.716-.012"/><path d="M829.271 631.04v-38.686c0-5.258-4.303-9.56-9.562-9.56-5.258 0-9.56 4.302-9.56 9.56v55.135l-4.9-6.168-8.726-11.748c-3.136-4.22-9.155-5.11-13.377-1.975-4.222 3.134-5.11 9.154-1.976 13.377l28.952 39.438m19.149-41.953v-22.176c0-5.259 4.303-9.56 9.562-9.56 5.258 0 9.561 4.301 9.561 9.56v16.24m0 12.244v-20.49c0-5.258 4.303-9.561 9.562-9.561 5.258 0 9.56 4.303 9.56 9.562v22.158m0 12.184v-23.398c0-5.259 4.303-9.562 9.562-9.562 5.258 0 9.561 4.303 9.561 9.562v38.546" stroke="#005A8A" stroke-width="2"/><path d="M839.813 595.957a23.716 23.716 0 0 0 3.937-14.43c-.697-13.137-11.91-23.222-25.046-22.526-13.137.696-23.222 11.91-22.526 25.047a23.711 23.711 0 0 0 4.464 12.673" stroke="#005A8A" stroke-width="2"/><path fill="#005A8A" d="M885.318 673.23l-4.322-.021 5.616 5.67 5.671-5.616-4.323-.02"/><path d="M471.475 321.992v-36.96c0-5.024-4.11-9.135-9.135-9.135-5.024 0-9.135 4.111-9.135 9.135v52.675l-4.682-5.892-8.336-11.225c-2.995-4.034-8.746-4.883-12.78-1.887-4.034 2.996-4.883 8.747-1.887 12.78l27.66 37.68m18.295-40.081v-21.187c0-5.024 4.11-9.135 9.135-9.135 5.024 0 9.135 4.11 9.135 9.135v15.516m0 11.696v-19.576c0-5.024 4.11-9.134 9.135-9.134 5.024 0 9.136 4.11 9.136 9.134v21.171" stroke="#005A8A" stroke-width="2"/><path d="M508.015 348.343v-22.355c0-5.024 4.11-9.135 9.135-9.135 5.024 0 9.135 4.11 9.135 9.135v36.829m-44.737-74.344a22.659 22.659 0 0 0 3.76-13.787c-.664-12.55-11.378-22.186-23.93-21.52-12.55.665-22.185 11.38-21.518 23.93a22.65 22.65 0 0 0 4.262 12.106" stroke="#005A8A" stroke-width="2"/><path fill="#005A8A" d="M525.022 362.3l-4.129-.02 5.366 5.417 5.417-5.365-4.13-.02"/><path d="M1278.815 578.305v-64.698c0-8.795-7.196-15.99-15.99-15.99-8.795 0-15.99 7.195-15.99 15.99v92.207l-8.197-10.315-14.592-19.648c-5.244-7.062-15.31-8.548-22.372-3.304-7.06 5.243-8.547 15.31-3.303 22.37l48.418 65.958m32.026-70.161v-37.088c0-8.795 7.195-15.99 15.99-15.99s15.99 7.195 15.99 15.99v27.16m0 20.474v-34.265c0-8.795 7.197-15.991 15.99-15.991 8.795 0 15.991 7.196 15.991 15.99v37.059m.001 20.377v-39.132c0-8.794 7.195-15.99 15.99-15.99s15.99 7.196 15.99 15.99v64.467" stroke="#005A8A" stroke-width="2"/><path d="M1296.445 519.63a39.653 39.653 0 0 0 6.584-24.134c-1.164-21.97-19.918-38.835-41.888-37.67-21.97 1.164-38.835 19.918-37.671 41.888a39.653 39.653 0 0 0 7.465 21.193" stroke="#005A8A" stroke-width="2"/><path fill="#005A8A" d="M1373.24 649.025L1368 649l6.808 6.872 6.872-6.807-5.239-.025"/></g></svg>