<?xml version="1.0" encoding="UTF-8"?>
<svg viewBox="0 0 1053 592" xmlns="http://www.w3.org/2000/svg">
<metadata>Created by potrace 1.16, written by Peter Selinger 2001-2019</metadata>
<g>
<title>Layer 1</title>
<g transform="translate(0 592) scale(.1 -.1)" fill="#5764ec">
<path d="m720 5873c-60-94-290-571-355-738-163-411-280-839-345-1253-19-123-20-176-20-916 0-864-2-828 66-1166 80-402 205-797 380-1197 56-130 220-454 277-550l32-53h2205l2205 1-155 53c-208 71-305 112-499 212-318 164-566 347-831 613-495 497-787 1095-866 1777-20 167-14 551 10 709 95 633 377 1198 829 1665 372 384 806 658 1332 841l140 49h-2187-2188l-30-47z"/>
</g>
</g>
</svg>
