<?xml version="1.0" standalone="no"?>
<!DOCTYPE svg PUBLIC "-//W3C//DTD SVG 1.1//EN" "http://www.w3.org/Graphics/SVG/1.1/DTD/svg11.dtd" >
<svg xmlns="http://www.w3.org/2000/svg">
<metadata>Generated by IcoMoon</metadata>
<defs>
<font id="icomoon" horiz-adv-x="1024">
<font-face units-per-em="1024" ascent="960" descent="-64" />
<missing-glyph horiz-adv-x="1024" />
<glyph unicode="&#x20;" horiz-adv-x="512" d="" />
<glyph unicode="&#xe029;" glyph-name="uniE029" d="M896 768l-384-640-384 640z" />
<glyph unicode="&#xe603;" glyph-name="uniE603" d="M738.912 652.288l-22.624 22.624-204.288-204.288-204.288 204.288-22.624-22.624 204.288-204.288-204.288-204.288 22.624-22.624 204.288 204.288 204.288-204.288 22.624 22.624-204.288 204.288z" />
<glyph unicode="&#xe60e;" glyph-name="uniE60D" d="M960 512h-448v448h-64v-448h-448v-64h448v-448h64v448h448z" />
<glyph unicode="&#xe60f;" glyph-name="uniE60E" d="M0 512h960v-64h-960v64z" />
<glyph unicode="&#xe900;" glyph-name="AI-Chatbots" horiz-adv-x="1336" d="M1232.703 951.322c36.312 0 65.749-29.437 65.749-65.749 0-31.55-22.222-57.91-51.868-64.281l-0.012-424.943 23.687-0.010c30.673 0 55.539-24.866 55.539-55.539v-138.847c0-30.673-24.866-55.539-55.539-55.539l-44.999 0.001c-28.061-115.541-132.195-201.329-256.367-201.329h-602.463c-124.172 0-228.307 85.789-256.367 201.329l-45.846-0.001c-30.673 0-55.539 24.866-55.539 55.539v0 138.847c0 30.673 24.866 55.539 55.539 55.539v0l24.507 0.010 0.001 424.946c-28.573 6.147-50.246 30.863-51.769 60.895l-0.086 3.383c0 36.312 29.437 65.749 65.749 65.749s65.749-29.437 65.749-65.749c0-31.55-22.222-57.91-51.868-64.281l-0.005-284.759c35.273 104.174 133.847 179.155 249.934 179.155h602.463c116.087 0 214.662-74.981 249.934-179.155l-0.023 284.762c-29.637 6.378-51.851 32.734-51.851 64.278 0 36.312 29.437 65.749 65.749 65.749zM968.893 680.976h-602.463c-124.72 0-226.163-99.661-229.036-223.691l-0.063-5.408v-242.983c0-124.72 99.661-226.163 223.691-229.036l5.408-0.063h602.463c124.72 0 226.163 99.661 229.036 223.691l0.063 5.408v242.983c0 124.72-99.661 226.163-223.691 229.036l-5.408 0.063zM897.725 514.359c132.279 0 239.512-107.233 239.512-239.512s-107.233-239.512-239.512-239.512h-460.974c-132.279 0-239.512 107.233-239.512 239.512s107.233 239.512 239.512 239.512h460.974zM897.725 479.647h-460.974c-113.108 0-204.8-91.692-204.8-204.8 0-111.368 88.892-201.974 199.595-204.735l5.205-0.065h460.974c113.108 0 204.8 91.692 204.8 204.8 0 111.368-88.892 201.974-199.595 204.735l-5.205 0.065zM612.123 208.894c0-25.642 32.137-48.597 73.589-48.597 40.115 0 71.506 21.498 73.49 46.124l0.1 2.472h27.769c0-43.373-46.19-76.366-101.359-76.366-53.754 0-98.984 31.322-101.268 73.051l-0.090 3.316h27.769zM900.852 379.53c33.7 0 61.020-27.319 61.020-61.020s-27.319-61.020-61.020-61.020c-33.7 0-61.020 27.319-61.020 61.020s27.319 61.020 61.020 61.020zM457.929 379.53c33.7 0 61.020-27.319 61.020-61.020s-27.319-61.020-61.020-61.020c-33.7 0-61.020 27.319-61.020 61.020s27.319 61.020 61.020 61.020z" />
<glyph unicode="&#xe901;" glyph-name="Cloud-Consulting" horiz-adv-x="950" d="M486.17 960c126.64 0 231.763-92.129 252.002-213.020 17.472 6.891 36.505 10.662 56.419 10.662 85.241 0 154.342-69.101 154.342-154.342 0-83.843-66.854-152.072-150.163-154.287l-4.179-0.055-47.505 0.006v-195.376l59.398-0.002c5.657 33.957 35.173 59.842 70.735 59.842 39.606 0 71.713-32.107 71.713-71.713s-32.107-71.713-71.713-71.713c-35.557 0-65.070 25.878-70.733 59.828l-83.131 0.013-0.015 219.121h-150.825l0.010-368.505c32.933-5.488 58.274-33.418 59.769-67.54l0.070-3.194c0-39.606-32.107-71.713-71.713-71.713s-71.713 32.107-71.713 71.713c0 35.561 25.884 65.077 59.839 70.735l-0.007 368.505h-153.125l0.010-369.347c30.841-7.086 54.089-34.060 55.52-66.699l0.070-3.194c0-39.606-32.107-71.713-71.713-71.713s-71.713 32.107-71.713 71.713c0 37.029 28.065 67.503 64.084 71.312l-0.002 367.928h-147.204l0.015-219.121-71.258-0.013c-5.663-33.95-35.176-59.828-70.733-59.828-39.606 0-71.713 32.107-71.713 71.713s32.107 71.713 71.713 71.713c35.562 0 65.079-25.885 70.735-59.842l47.511 0.002-0.015 195.567c-105.69 4.665-189.944 91.827-189.944 198.667 0 109.829 89.034 198.864 198.864 198.864 20.322 0 39.932-3.048 58.398-8.713 44.923 73.205 125.71 122.027 217.9 122.027zM486.17 936.255c-79.752 0-152.477-40.585-194.822-106.189l-2.84-4.512-9.619-15.675-17.582 5.393c-16.51 5.064-33.784 7.669-51.435 7.669-96.715 0-175.119-78.403-175.119-175.119 0-95.228 76.010-172.702 170.668-175.063l4.451-0.058 588.267 0.049c70.613 1.877 127.049 59.743 127.049 130.55 0 72.127-58.47 130.597-130.597 130.597-14.739 0-29.096-2.433-42.659-7.137l-5.048-1.87-27.288-10.762-4.843 28.931c-18.557 110.84-114.94 193.196-228.583 193.196zM549.050 870.819c6.080-2.456 9.017-9.376 6.56-15.455s-9.376-9.017-15.455-6.56c-39.265 15.864-82.939 11.793-118.335-9.99-23.724-14.6-42.257-36.308-52.921-62.704-2.456-6.080-9.376-9.017-15.455-6.56s-9.017 9.376-6.56 15.455c12.58 31.136 34.486 56.795 62.492 74.031 41.753 25.696 93.34 30.504 139.675 11.784z" />
<glyph unicode="&#xe902;" glyph-name="Cloud-Migration" horiz-adv-x="1085" d="M554.133 596.46v-583.301l70.117 58.571 26.262-31.433-114.443-95.603-1.354-1.647-0.305 0.254-0.297-0.254-1.382 1.647-114.415 95.603 26.262 31.433 68.595-57.301v582.031h40.96zM826.005 330.22l1.373-1.66 114.424-95.589-26.262-31.433-70.222 58.66-1.024-185.080 0.1-4.403c2.13-43.344 37.948-77.831 81.82-77.831v0h141.443v-40.96l-146.049 0.085c-65.73 2.423-118.273 56.473-118.273 122.795v0l1.024 183.961-68.49-57.227-26.262 31.433 114.413 95.589 1.384 1.66 0.296-0.247 0.307 0.247zM242.254 330.22l1.43-1.701 114.366-95.548-26.262-31.433-68.485 57.206 1.019-183.941c0-66.322-52.543-120.373-118.273-122.795l-4.607-0.085h-141.443v40.96h141.443c43.872 0 79.689 34.488 81.82 77.831l0.1 4.403-1.018 185.080-70.227-58.66-26.262 31.433 114.389 95.548 1.408 1.701 0.312-0.267 0.29 0.267zM554.472 959.336c127.612 0 234.818-87.366 265.068-205.549 16.082 4.885 33.143 7.511 50.817 7.511 96.417 0 174.579-78.161 174.579-174.579 0-94.664-75.345-171.73-169.338-174.501l-5.241-0.077-224.083 0.010v40.96l228.117 0.049c72.066 2.125 129.585 61.262 129.585 133.559 0 73.795-59.823 133.619-133.619 133.619-11.139 0-22.064-1.354-32.623-4.001l-6.29-1.742-40.967-12.443-10.617 41.478c-26.121 102.050-118.512 174.746-225.387 174.746-76.12 0-145.934-36.793-189.256-97.355l-3.983-5.747-17.14-25.53-29.299 9.333c-17.233 5.489-35.319 8.317-53.836 8.317-97.835 0-177.147-79.311-177.147-177.147 0-96.057 76.453-174.257 171.829-177.068l5.318-0.083 160.036 0.015v-40.96l-160.036-0.010c-120.457 0-218.107 97.65-218.107 218.107s97.65 218.107 218.107 218.107c23.104 0 45.369-3.592 66.267-10.249 49.089 73.121 132.55 121.231 227.247 121.231z" />
<glyph unicode="&#xe903;" glyph-name="Cloud-Security-Posture-Management" horiz-adv-x="1117" d="M575.113 558.165c59.361-57.858 130.745-84.909 224.671-84.909 12.774 0 22.542-9.768 22.542-22.542 0-15.78 0-31.559 0.751-48.090 2.976-156.961 6.688-369.893-248.42-462.356l-7.81-2.765-7.514-1.503-7.514 1.503c-263.744 90.92-259.235 307.325-256.23 465.121 0.751 16.531 0.751 32.31 0.751 48.090 0 12.774 9.768 22.542 22.542 22.542 93.926 0 165.309 27.051 224.671 84.909 9.017 8.265 22.542 8.265 31.559 0zM537.622 500.017l-0.311-0.294c-43.504-42.403-95.526-62.076-164.997-62.076-17.647 0-31.496-13.849-31.496-31.496l-0.078-19.087c-0.026-2.214-0.059-4.262-0.102-6.228l-0.441-13.878-0.328-20.268c-0.594-46.745 0.406-74.072 4.668-106.237 15.833-119.498 75.779-202.328 204.399-246.667l1.812-0.491 8.583-1.717 8.583 1.717 1.824 0.495c97.61 33.745 156.646 91 185.757 169.498 21.057 56.78 24.816 106.301 22.931 205.725l-0.405 12.006c-0.141 6.544-0.177 13.932-0.177 25.132 0 17.647-13.849 31.496-31.496 31.496-69.471 0-121.493 19.673-164.997 62.076-12.663 11.616-31.376 11.616-43.728 0.294zM562.168 479.431c48.597-47.375 107.657-69.711 184.179-69.711 2.223 0 3.569-1.346 3.569-3.569l0.081-19.594c0.081-6.858 0.235-12.243 0.517-18.444l0.255-15.924c1.092-85.079-3.133-129.773-21.46-179.191l-2.014-5.26c-26.15-66.168-76.506-114.755-160.021-145.189l-5.813-2.054-2.141-0.434-2.079 0.419 0.795-0.292c-117.965 40.666-171.298 114.358-185.816 223.933l-1.029 8.247c-3.341 28.625-3.994 55.362-3.306 100.609l0.271 15.504 0.348 9.544c0.191 7.231 0.239 15.236 0.239 28.125 0 2.223 1.346 3.569 3.569 3.569 74.131 0 131.874 20.961 179.875 65.61l4.304 4.101c1.675 1.535 4 1.535 5.675 0zM633.229 318.703l-107.421-107.418-40.395 40.392-19.748-19.748 60.143-60.143 127.168 127.168-19.748 19.748zM566.612 955.345c148.942 0 272.578-108.35 296.387-250.529 20.544 8.092 42.933 12.529 66.358 12.529 100.255 0 181.527-81.273 181.527-181.527 0-98.712-78.791-179.022-176.914-181.47l-4.613-0.057-37.236 0.013v27.927l36.888-0.015 4.265 0.051c83.161 2.074 149.683 70.177 149.683 153.551 0 84.831-68.769 153.6-153.6 153.6-17.333 0-34.225-2.861-50.184-8.389l-5.94-2.197-32.084-12.637-5.695 34.009c-21.829 130.359-135.187 227.214-268.843 227.214-93.971 0-179.652-47.909-229.435-125.321l-3.064-4.877-11.314-18.428-20.674 6.34c-19.413 5.953-39.723 9.014-60.477 9.014-113.751 0-205.964-92.213-205.964-205.964 0-108.072 83.334-196.954 189.291-205.316l-0.004-27.989c-121.391 8.552-217.214 109.738-217.214 233.306 0 129.174 104.717 233.891 233.891 233.891 23.894 0 46.952-3.583 68.665-10.241 52.853 86.091 147.87 143.514 256.299 143.514zM640.568 850.457c7.15-2.889 10.605-11.027 7.716-18.178s-11.027-10.605-18.178-7.716c-46.181 18.658-97.548 13.871-139.178-11.75-27.902-17.172-49.7-42.703-62.243-73.748-2.889-7.15-11.027-10.605-18.178-7.716s-10.605 11.027-7.716 18.178c14.796 36.621 40.56 66.799 73.499 87.070 49.108 30.222 109.781 35.877 164.277 13.859z" />
<glyph unicode="&#xe904;" glyph-name="Cloud-Native-Apps" horiz-adv-x="948" d="M279.384 417.433v-30.567h-147.334c-9.139 0-16.662-6.914-17.625-15.797l-0.104-1.932v-358.859h717.717v358.859c0 9.139-6.914 16.662-15.797 17.625l-1.932 0.104h-169.342v30.567h169.342c25.753 0 46.799-20.157 48.22-45.556l0.076-2.741v-363.123l72.75-0.015-16.985-28.308c-9.944-16.573-27.853-26.713-47.18-26.713h-807.026c-19.327 0-37.236 10.14-47.18 26.713l-16.985 28.308 83.754 0.015v363.123c0 25.753 20.157 46.799 45.556 48.22l2.741 0.076h147.334zM401.653 594.726v-33.013l-50.74-0.003c-5.571 0-10.175-4.14-10.904-9.511l-0.1-1.493v-330.125c0-5.571 4.14-10.175 9.511-10.904l1.493-0.1h232.417c5.571 0 10.175 4.14 10.904 9.511l0.1 1.493v330.125c0 6.077-4.927 11.004-11.004 11.004l-55.756 0.003v33.013h44.643c24.31 0 44.017-19.71 44.017-44.020v-385.146c0-24.31-19.707-44.017-44.017-44.017h-209.079c-24.31 0-44.017 19.707-44.017 44.017v385.146c0 24.31 19.707 44.020 44.017 44.020h38.515zM467.678 189.094c-14.154 0-25.628-11.474-25.628-25.628s11.474-25.628 25.628-25.628c14.154 0 25.628 11.474 25.628 25.628s-11.474 25.628-25.628 25.628zM468.711 714.386l57.801-46.241-13.749-17.186-35.197 28.158v-316.095l35.197 28.149 13.749-17.186-57.801-46.241-61.488 44.869 12.973 17.778 35.362-25.811v312.977l-35.362-25.82-12.973 17.778 61.488 44.869zM473.423 952.358c117.373 0 214.804-85.383 233.57-197.426 16.192 6.371 33.835 9.867 52.295 9.867 79.007 0 143.054-64.048 143.054-143.054 0-77.878-62.231-141.221-139.678-143.015l-3.377-0.039-99.038 0.013v22.008l101.905 0.020c65.63 1.52 118.179 55.227 118.179 121.013 0 66.852-54.194 121.046-121.046 121.046-13.827 0-27.303-2.311-40.025-6.772l-4.212-1.567-25.277-9.945-4.487 26.79c-17.205 102.728-106.536 179.053-211.864 179.053-74.171 0-141.784-37.873-180.981-99.050l-2.23-3.555-8.916-14.526-16.295 4.998c-15.301 4.693-31.311 7.107-47.669 7.107-89.642 0-162.312-72.669-162.312-162.312 0-88.478 70.794-160.421 158.828-162.275l3.484-0.038 46.752 0.015v-22.008l-46.752-0.013c-101.797 0-184.32 82.523-184.32 184.32s82.523 184.32 184.32 184.32c18.834 0 37.009-2.825 54.123-8.074 41.646 67.852 116.523 113.101 201.968 113.101zM533.308 873.667c7.826-3.162 11.607-12.070 8.445-19.896s-12.070-11.607-19.896-8.445c-35.119 14.189-74.173 10.549-105.834-8.936-21.217-13.058-37.787-32.466-47.326-56.076-3.162-7.826-12.070-11.607-19.896-8.445s-11.607 12.070-8.445 19.896c12.005 29.714 32.917 54.208 59.646 70.658 39.846 24.522 89.086 29.112 133.306 11.245z" />
<glyph unicode="&#xe905;" glyph-name="DevOps-Transformation" horiz-adv-x="1095" d="M625.181 118.862c0.758 0.758 1.555 1.453 2.383 2.087 0.138 0.072 0.26 0.164 0.383 0.255 1.347 1.023 2.79 1.859 4.286 2.532 0.423 0.179 0.849 0.358 1.281 0.524 0.026 0.018 0.062 0.031 0.098 0.045l1.747 0.578c0.11 0.032 0.221 0.064 0.332 0.094 0.287 0.079 0.569 0.15 0.853 0.217 0.47 0.113 0.949 0.211 1.434 0.294 0.304 0.047 0.61 0.093 0.917 0.133 0.505 0.072 1.017 0.123 1.534 0.157 0.201 0.006 0.402 0.016 0.602 0.024 0.323 0.021 0.649 0.028 0.977 0.028h142.178c13.078 0 23.699-10.622 23.699-23.699s-10.622-23.699-23.699-23.699l-84.652 0.010 54.557-54.177c0.712-0.477 1.423-0.946 2.083-1.467 31.995-25.643 69.484-39.146 108.386-39.146 99.431 0 180.282 85.017 180.282 189.568s-80.895 189.568-180.282 189.568c-38.859 0-76.348-13.503-108.386-39.094-1.085-0.902-2.317-1.657-3.549-2.369l-383.977-335.685c-1.753-1.519-3.645-2.794-5.684-3.697-39.432-29.904-85.312-45.689-133.083-45.689-125.542 0-227.672 106.304-227.672 236.966s102.13 236.966 227.672 236.966c47.867 0 93.842-15.828 133.361-45.88 2.378-1.093 4.599-2.603 6.543-4.547l58.955-58.527 0.002 85.255c0 13.078 10.613 23.699 23.699 23.699 13.078 0 23.691-10.622 23.691-23.699l0.004-143.33c-0.015-0.319-0.037-0.637-0.065-0.955l0.061 2.107c0-0.849-0.045-1.687-0.132-2.513-0.034-0.609-0.122-1.217-0.233-1.821-0.055-0.13-0.081-0.266-0.109-0.401-0.784-4.014-2.642-7.855-5.545-11.092-0.112-0.076-0.198-0.17-0.284-0.263-0.168-0.229-0.367-0.436-0.57-0.641-4.974-5.025-11.607-7.346-18.128-6.977l-140.867 0.009c-13.086 0-23.699 10.622-23.699 23.699s10.613 23.699 23.699 23.699l84.631 0.015-54.537 54.196c-0.712 0.477-1.423 0.955-2.091 1.475-31.987 25.591-69.475 39.094-108.386 39.094-99.379 0-180.282-85.017-180.282-189.568s80.904-189.568 180.282-189.568c38.868 0 76.348 13.503 108.386 39.094 1.093 0.902 2.326 1.657 3.558 2.369l383.977 335.685c1.753 1.519 3.645 2.794 5.684 3.697 39.432 29.904 85.303 45.689 133.075 45.689 125.542 0 227.681-106.304 227.681-236.966s-102.138-236.966-227.681-236.966c-47.867 0-93.834 15.828-133.361 45.88-2.369 1.093-4.599 2.603-6.534 4.547l-58.958 58.533 0.001-85.261c0-13.078-10.622-23.699-23.699-23.699s-23.699 10.622-23.699 23.699v143.33c0.271 5.657 2.56 11.242 6.873 15.579zM567.968 951.172c14.052 0 26.097-9.486 29.525-22.877l0.54-2.555 5.766-34.184c9.638-2.883 19.011-6.557 28.069-10.916l6.733-3.396 28.624 20.387c5.148 3.707 11.223 5.663 17.607 5.663 7.117 0 13.841-2.444 19.273-6.918l2.247-2.040 30.684-30.684c9.943-9.846 11.74-25.031 4.8-36.902l-1.505-2.327-20.387-28.521c4.53-8.567 8.402-17.463 11.614-26.636l2.286-6.931 34.596-5.869c13.858-2.326 24.159-13.681 25.153-27.456l0.076-2.61v-43.348c0-14.052-9.488-26.097-22.88-29.525l-2.555-0.54-34.596-5.766c-2.801-9.226-6.392-18.254-10.616-27.031l-3.284-6.535 20.387-28.624c8.108-11.39 7.348-26.672-1.432-37.192l-1.863-2.038-30.684-30.684c-5.045-5.045-11.51-8.12-18.496-8.81l-3.024-0.148-2.721 0.119c-4.326 0.38-8.499 1.667-12.255 3.793l-2.734 1.751-28.521 20.387c-8.567-4.53-17.463-8.402-26.636-11.614l-6.931-2.286-5.869-34.596c-2.326-13.858-13.681-24.159-27.456-25.323l-2.61-0.11h-43.451c-14.052 0-26.097 9.486-29.525 22.877l-0.54 2.555-5.766 34.596c-8.979 2.801-17.759 6.194-26.237 10.234l-6.3 3.152-28.933-20.593c-5.148-3.707-11.223-5.663-17.607-5.663-7.117 0-13.841 2.444-19.273 6.918l-2.247 2.040-30.684 30.684c-9.943 9.846-11.74 25.031-4.8 36.902l1.505 2.327 20.284 28.212c-4.613 8.567-8.567 17.463-11.809 26.583l-2.297 6.881-35.008 5.972c-13.858 2.326-24.159 13.681-25.323 27.456l-0.11 2.61v43.348c0 14.052 9.486 26.097 22.877 29.525l2.555 0.54 34.184 5.766c2.801 9.308 6.26 18.352 10.432 27.133l3.263 6.536-20.593 28.933c-8.108 11.39-7.348 26.672 1.432 37.192l1.863 2.038 30.787 30.684c5.663 5.766 13.385 8.958 21.52 8.958 5.472 0 10.792-1.437 15.443-4.182l2.267-1.481 28.315-20.387c8.567 4.613 17.463 8.567 26.583 11.809l6.881 2.297 5.972 35.008c2.326 13.858 13.681 24.159 27.456 25.323l2.61 0.11h43.348zM568.174 923.475h-43.348c-1.071 0-2.010-0.593-2.448-1.516l-0.229-0.75-7.413-43.554c-0.927-5.354-4.942-9.679-10.194-11.12-15.136-3.913-29.654-10.091-43.039-18.122-4.144-2.433-9.235-2.579-13.478-0.439l-1.761 1.057-35.523 25.329c-0.412 0.309-0.927 0.515-1.544 0.515-0.343 0-0.778-0.046-1.243-0.29l-0.713-0.534-30.684-30.684c-0.695-0.695-0.927-1.738-0.695-2.65l0.386-0.851 25.638-36.038c3.192-4.427 3.501-10.296 0.721-15.033-7.928-13.488-13.797-28.109-17.607-43.245-1.19-4.759-4.82-8.461-9.445-9.876l-1.778-0.421-42.936-7.208c-1.071-0.165-1.878-0.923-2.158-1.904l-0.107-0.773v-43.348c0-1.071 0.593-2.010 1.516-2.448l0.75-0.229 43.554-7.413c5.354-0.927 9.679-4.942 11.12-10.194 3.913-15.136 10.091-29.654 18.122-43.039 2.433-4.144 2.579-9.235 0.439-13.478l-1.057-1.761-25.329-35.523c-0.541-0.849-0.618-1.873-0.232-2.722l0.541-0.779 30.684-30.684c0.721-0.721 1.544-0.824 1.956-0.824l0.772 0.142 0.772 0.373 36.038 25.638c2.368 1.75 5.251 2.574 8.031 2.574 2.368 0 4.839-0.618 7.002-1.853 13.282-7.619 27.492-13.488 42.216-17.298 4.595-1.171 8.244-4.629 9.705-9.13l0.489-1.99 7.208-43.245c0.165-1.071 0.923-1.878 1.904-2.158l0.773-0.107h43.348c1.071 0 2.010 0.593 2.448 1.516l0.229 0.75 7.311 43.245c0.824 5.354 4.839 9.782 10.194 11.12 15.136 3.913 29.654 9.885 43.142 17.916 4.144 2.433 9.235 2.579 13.409 0.439l1.727-1.057 35.729-25.432c0.412-0.309 0.927-0.515 1.544-0.515 0.343 0 0.778 0.046 1.243 0.29l0.713 0.534 30.684 30.684c0.695 0.695 0.927 1.738 0.695 2.65l-0.386 0.851-25.432 35.832c-3.192 4.53-3.398 10.399-0.618 15.136 8.031 13.488 14.003 28.006 17.916 43.142 1.171 4.595 4.629 8.244 9.13 9.705l1.99 0.489 43.245 7.208c1.071 0.165 1.878 0.923 2.158 1.904l0.107 0.773h0.103v43.348c0 1.071-0.593 2.010-1.516 2.448l-0.75 0.229-43.245 7.311c-5.354 0.824-9.782 4.839-11.12 10.194-3.913 15.136-9.885 29.654-17.916 43.142-2.433 4.144-2.579 9.235-0.439 13.409l1.057 1.727 25.432 35.729c0.541 0.849 0.618 1.873 0.232 2.722l-0.541 0.779-30.684 30.684c-0.721 0.721-1.544 0.824-1.956 0.824l-0.772-0.142-0.772-0.373-35.523-25.535c-4.53-3.192-10.399-3.398-15.136-0.618-13.797 8.134-28.624 14.209-44.172 18.122-4.759 1.19-8.461 4.82-9.876 9.445l-0.421 1.778-7.208 42.936c-0.206 1.339-1.339 2.265-2.677 2.265zM547.272 811.14c58.69 0 106.363-47.673 106.363-106.363s-47.673-106.363-106.363-106.363c-58.69 0-106.363 47.673-106.363 106.363s47.673 106.363 106.363 106.363zM547.272 783.34c-43.348 0-78.562-35.214-78.562-78.562s35.214-78.562 78.562-78.562c43.348 0 78.562 35.214 78.562 78.562s-35.214 78.562-78.562 78.562z" />
<glyph unicode="&#xe906;" glyph-name="DevOps" horiz-adv-x="683" d="M160.269 105.459v-32.527l-100.131-0.010c82.887-63.979 184.553-99.315 291.672-99.315 109.131 0 212.581 36.682 296.239 102.883l8.034 6.498 21.59-26.113c-91.042-75.272-205.257-117.151-325.862-117.151-111.687 0-217.917 35.909-305.375 101.067l-0.011-103.389h-32.527v168.056h146.372zM357.616 752.504c17.818 0 33.082-12.070 37.354-29.084l0.638-3.052 7.286-43.196c12.178-3.643 24.023-8.285 35.469-13.794l8.508-4.291 36.17 25.761c6.505 4.684 14.182 7.156 22.249 7.156 9.136 0 17.759-3.187 24.68-9.012l2.513-2.307 38.772-38.772c12.613-12.49 14.853-31.781 5.961-46.807l-1.798-2.765-25.761-36.040c5.725-10.825 10.617-22.066 14.676-33.657l2.888-8.758 43.716-7.416c17.572-2.949 30.618-17.388 31.797-34.876l0.083-3.116v-54.776c0-17.818-12.073-33.082-29.088-37.354l-3.053-0.638-43.716-7.286c-3.539-11.658-8.077-23.066-13.415-34.157l-4.15-8.258 25.761-36.17c10.286-14.45 9.278-33.855-1.941-47.152l-2.223-2.419-38.772-38.772c-6.476-6.476-14.803-10.383-23.793-11.171l-3.4-0.148-3.438 0.151c-5.694 0.501-11.179 2.244-16.076 5.134l-2.865 1.871-36.040 25.761c-10.825-5.725-22.066-10.617-33.657-14.676l-8.758-2.888-7.416-43.716c-2.949-17.572-17.388-30.618-34.876-32.013l-3.116-0.124h-54.906c-17.818 0-33.082 12.070-37.354 29.084l-0.638 3.052-7.286 43.716c-11.345 3.539-22.441 7.827-33.154 12.932l-7.961 3.982-36.56-26.022c-6.505-4.684-14.182-7.156-22.249-7.156-9.136 0-17.759 3.187-24.68 9.012l-2.513 2.307-38.772 38.772c-12.613 12.49-14.853 31.781-5.961 46.807l1.798 2.765 25.631 35.65c-5.829 10.825-10.825 22.066-14.922 33.591l-2.903 8.694-44.237 7.546c-17.572 2.949-30.618 17.388-32.013 34.876l-0.124 3.116v54.776c0 17.818 12.070 33.082 29.084 37.354l3.052 0.638 43.196 7.286c3.539 11.762 7.911 23.19 13.182 34.286l4.123 8.259-26.022 36.56c-10.286 14.45-9.278 33.855 1.941 47.152l2.223 2.419 38.902 38.772c7.156 7.286 16.914 11.319 27.193 11.319 6.914 0 13.637-1.816 19.514-5.285l2.865-1.871 35.78-25.761c10.825 5.829 22.066 10.825 33.591 14.922l8.694 2.903 7.546 44.237c2.949 17.572 17.388 30.618 34.876 32.013l3.116 0.124h54.776zM357.877 717.505h-54.776c-1.353 0-2.54-0.749-3.093-1.915l-0.289-0.947-9.368-55.036c-1.171-6.766-6.245-12.23-12.881-14.052-19.126-4.944-37.471-12.751-54.385-22.899-5.237-3.074-11.669-3.259-17.030-0.555l-2.226 1.336-44.887 32.007c-0.52 0.39-1.171 0.651-1.952 0.651-0.434 0-0.983-0.058-1.571-0.366l-0.901-0.675-38.772-38.772c-0.937-0.937-1.207-2.373-0.812-3.576l0.422-0.847 32.397-45.538c4.033-5.595 4.424-13.011 0.911-18.996-10.018-17.044-17.435-35.52-22.249-54.645-1.503-6.014-6.091-10.691-11.935-12.479l-2.247-0.532-54.255-9.108c-1.353-0.208-2.373-1.166-2.727-2.406l-0.135-0.976v-54.776c0-1.353 0.749-2.54 1.915-3.093l0.947-0.289 55.036-9.368c6.766-1.171 12.23-6.245 14.052-12.881 4.944-19.126 12.751-37.471 22.899-54.385 3.074-5.237 3.259-11.669 0.555-17.030l-1.336-2.226-32.007-44.887c-0.729-1.145-0.791-2.54-0.187-3.651l0.578-0.772 38.772-38.772c0.911-0.911 1.952-1.041 2.472-1.041l0.976 0.179 0.976 0.472 45.538 32.397c2.992 2.212 6.636 3.253 10.148 3.253 2.992 0 6.115-0.781 8.847-2.342 16.784-9.628 34.739-17.044 53.344-21.858 5.898-1.503 10.563-5.988 12.349-11.809l0.532-2.242 9.108-54.645c0.208-1.353 1.166-2.373 2.406-2.727l0.976-0.135h54.776c1.353 0 2.54 0.749 3.093 1.915l0.289 0.947 9.238 54.645c1.041 6.766 6.115 12.36 12.881 14.052 19.126 4.944 37.471 12.49 54.515 22.639 5.237 3.074 11.669 3.259 16.943 0.555l2.183-1.336 45.148-32.137c0.52-0.39 1.171-0.651 1.952-0.651 0.434 0 0.983 0.058 1.571 0.366l0.901 0.675 38.772 38.772c0.937 0.937 1.207 2.373 0.812 3.576l-0.422 0.847-32.137 45.278c-4.033 5.725-4.294 13.141-0.781 19.126 10.148 17.044 17.695 35.389 22.639 54.515 1.503 5.898 5.988 10.563 11.809 12.349l2.242 0.532 54.645 9.108c1.353 0.208 2.373 1.166 2.727 2.406l0.135 0.976h0.13v54.776c0 1.353-0.749 2.54-1.915 3.093l-0.947 0.289-54.645 9.238c-6.766 1.041-12.36 6.115-14.052 12.881-4.944 19.126-12.49 37.471-22.639 54.515-3.074 5.237-3.259 11.669-0.555 16.943l1.336 2.183 32.137 45.148c0.729 1.145 0.791 2.54 0.187 3.651l-0.578 0.772-38.772 38.772c-0.911 0.911-1.952 1.041-2.472 1.041l-0.976-0.179-0.976-0.472-44.887-32.267c-5.725-4.033-13.141-4.294-19.126-0.781-17.435 10.279-36.17 17.955-55.816 22.899-6.014 1.503-10.691 6.091-12.479 11.935l-0.532 2.247-9.108 54.255c-0.26 1.691-1.691 2.862-3.383 2.862zM331.465 575.557c74.162 0 134.402-60.24 134.402-134.402s-60.24-134.402-134.402-134.402c-74.162 0-134.402 60.24-134.402 134.402s60.24 134.402 134.402 134.402zM331.465 540.428c-54.776 0-99.273-44.497-99.273-99.273s44.497-99.273 99.273-99.273c54.776 0 99.273 44.497 99.273 99.273s-44.497 99.273-99.273 99.273zM669.316 944.778v-168.056h-146.372v32.527l100.131 0.010c-82.887 63.979-184.553 99.315-291.672 99.315-109.131 0-212.581-36.682-296.239-102.883l-8.034-6.498-21.59 26.113c91.042 75.272 205.257 117.151 325.862 117.151 111.687 0 217.917-35.909 305.375-101.067l0.011 103.389h32.527z" />
<glyph unicode="&#xe907;" glyph-name="eCommerce-Platforms" d="M601.627 359.564c26.441 0 47.875-21.435 47.875-47.875v-323.158c0-26.441-21.435-47.875-47.875-47.875h-167.285c-26.441 0-47.875 21.435-47.875 47.875v323.158c0 26.441 21.435 47.875 47.875 47.875h167.285zM517.984 0.458c-12.531 0-22.689-10.158-22.689-22.689s10.158-22.689 22.689-22.689c12.531 0 22.689 10.158 22.689 22.689s-10.158 22.689-22.689 22.689zM618.145 306.4h-201.307c-6.102 0-11.137-4.566-11.876-10.467l-0.093-1.501v-263.871c0-6.102 4.566-11.137 10.467-11.876l1.501-0.093h201.307c6.102 0 11.137 4.566 11.876 10.467l0.093 1.501v263.871c0 6.61-5.359 11.969-11.969 11.969zM512 953.351c142.782 0 259.348-112.243 266.275-253.307l110.743 0.005c26.299 0 47.779-20.632 49.137-46.592l0.068-2.613-0.013-394.969 82.465-0.002-21.96-36.6c-8.652-14.42-24.236-23.244-41.053-23.244h-254.161v34.579l-1.33-0.002v26.597l209.441 0.002 0.013 393.64c0 11.829-9.084 21.536-20.657 22.525l-1.951 0.083-110.743-0.009c-6.934-141.057-123.497-253.294-266.275-253.294s-259.341 112.236-266.275 253.294l-98.775 0.009c-11.829 0-21.536-9.084-22.525-20.657l-0.083-1.951-0.013-393.64 197.499-0.002v-26.597l-1.33 0.002v-34.579h-254.161c-16.817 0-32.401 8.823-41.053 23.244l-21.96 36.6 94.407 0.002 0.013 394.969c0 26.299 20.632 47.779 46.592 49.137l2.613 0.068 98.774-0.005c6.927 141.064 123.493 253.307 266.275 253.307zM512 926.753c-132.55 0-240.004-107.453-240.004-240.004s107.453-240.004 240.004-240.004c132.55 0 240.004 107.453 240.004 240.004s-107.453 240.004-240.004 240.004zM475.495 605.96c14.849 0 26.93-12.081 26.93-26.93s-12.081-26.93-26.93-26.93c-14.849 0-26.93 12.081-26.93 26.93s12.081 26.93 26.93 26.93zM602.365 605.96c14.849 0 26.93-12.081 26.93-26.93s-12.081-26.93-26.93-26.93c-14.849 0-26.93 12.081-26.93 26.93s12.081 26.93 26.93 26.93zM475.495 588.007c-4.949 0-8.977-4.028-8.977-8.977s4.028-8.977 8.977-8.977c4.949 0 8.977 4.028 8.977 8.977s-4.028 8.977-8.977 8.977zM602.365 588.007c-4.949 0-8.977-4.028-8.977-8.977s4.028-8.977 8.977-8.977c4.949 0 8.977 4.028 8.977 8.977s-4.028 8.977-8.977 8.977zM421.636 821.399c3.74 0 7.034-2.309 8.361-5.707l0.403-1.323 6.417-28.877h219.408c2.817 0 5.47-1.323 7.167-3.572 1.412-1.874 2.024-4.209 1.741-6.503l-0.278-1.368-35.906-125.673c-0.979-3.424-3.871-5.905-7.316-6.414l-1.315-0.096-162.799-0.002c-4.939-0.012-8.953-4.032-8.953-8.974 0-4.499 3.329-8.237 7.652-8.879l1.325-0.098h162.776c4.958 0 8.977-4.018 8.977-8.977 0-4.507-3.321-8.238-7.65-8.879l-1.327-0.097h-162.776c-14.849 0-26.93 12.081-26.93 26.93 0 11.050 6.693 20.562 16.233 24.709-1.667 7.5-30.078 135.35-32.305 145.376l-0.105 0.471h-46.66c-4.958 0-8.977 4.018-8.977 8.977 0 4.507 3.321 8.238 7.65 8.879l1.327 0.097h53.86zM644.324 767.539h-203.519l23.938-107.719h148.804l30.778 107.719z" />
<glyph unicode="&#xe908;" glyph-name="facebook" horiz-adv-x="579" d="M521.043 955.337l-128.145 0.211c-143.966 0-237.004-98.053-237.004-249.816v-115.182h-128.844c-11.134 0-20.15-9.272-20.15-20.709v-166.886c0-11.437 9.026-20.698 20.15-20.698h128.844v-421.106c0-11.437 9.016-20.698 20.15-20.698h168.105c11.134 0 20.15 9.272 20.15 20.698v421.106h150.649c11.134 0 20.15 9.261 20.15 20.698l0.062 166.886c0 5.491-2.128 10.75-5.901 14.637s-8.913 6.072-14.259 6.072h-150.7v97.641c0 46.93 10.887 70.755 70.4 70.755l86.324 0.032c11.123 0 20.139 9.272 20.139 20.698v154.963c0 11.416-9.006 20.677-20.119 20.698z" />
<glyph unicode="&#xe909;" glyph-name="Frontend-Technologies" horiz-adv-x="1195" d="M1134.933 951.467c32.99 0 59.733-26.744 59.733-59.733v-657.067c0-32.99-26.744-59.733-59.733-59.733h-372.429l27.597-170.223 55.125-0.017c14.845 0 26.88-12.035 26.88-26.88s-12.035-26.88-26.88-26.88h-495.787c-14.845 0-26.88 12.035-26.88 26.88s12.035 26.88 26.88 26.88l55.125 0.017 27.597 170.223h-372.429c-32.99 0-59.733 26.744-59.733 59.733v657.067c0 32.99 26.744 59.733 59.733 59.733h1075.2zM729.549 164.847h-264.448l-24.781-152.9h314.010l-24.781 152.9zM1134.933 917.333h-1075.2c-13.307 0-24.242-10.153-25.483-23.135l-0.117-2.465v-657.067c0-13.307 10.153-24.242 23.135-25.483l2.465-0.117h1075.2c13.307 0 24.242 10.153 25.483 23.135l0.117 2.465v657.067c0 13.307-10.153 24.242-23.135 25.483l-2.465 0.117zM1118.29 840.96v-579.413h-1027.413v579.413h1027.413zM1084.143 806.827h-959.147v-511.147h959.147v511.147zM657.531 743.425l32.008-11.855-131.322-354.568-32.008 11.855 131.322 354.568zM746.122 708.148l117.693-152.389-115.751-149.456-26.986 20.9 99.572 128.591-101.543 131.491 27.015 20.864zM441.898 708.089l27.384-20.377-98.154-131.936 96.183-129.011-27.364-20.404-111.399 149.401 113.351 152.326zM597.333 905.716c11.197 0 20.274-9.077 20.274-20.274s-9.077-20.274-20.274-20.274c-11.197 0-20.274 9.077-20.274 20.274s9.077 20.274 20.274 20.274z" />
<glyph unicode="&#xe90a;" glyph-name="IoT-Solutions" horiz-adv-x="843" d="M429.41 960c112.439 0 205.774-81.797 223.744-189.132 15.503 6.114 32.407 9.465 50.093 9.465 75.683 0 137.035-61.353 137.035-137.035 0-74.355-59.219-134.878-133.065-136.979l-3.97-0.056-37.662 0.015 0.015-274.357 49.133 0.001c6.771 27.889 31.905 48.598 61.877 48.598 35.165 0 63.672-28.507 63.672-63.672s-28.507-63.672-63.672-63.672c-29.977 0-55.115 20.716-61.881 48.613l-79.247 0.001-0.015 304.489h-124.883l0.015-433.528c27.897-6.765 48.613-31.904 48.613-61.881 0-35.165-28.507-63.672-63.672-63.672s-63.672 28.507-63.672 63.672c0 29.972 20.708 55.106 48.598 61.877l0.001 433.531h-126.916l0.010-434.567c25.972-8.029 44.841-32.232 44.841-60.841 0-35.165-28.507-63.672-63.672-63.672s-63.672 28.507-63.672 63.672c0 31.309 22.598 57.34 52.372 62.672l0.002 432.736h-121.645v-304.489l-68.706-0.001c-6.765-27.897-31.904-48.613-61.881-48.613-35.165 0-63.672 28.507-63.672 63.672s28.507 63.672 63.672 63.672c29.972 0 55.106-20.708 61.877-48.598l38.577-0.001 0.023 274.772c-91.721 6.372-164.149 82.795-164.149 176.135 0 97.514 79.051 176.565 176.565 176.565 18.041 0 35.451-2.706 51.844-7.734 39.892 64.995 111.62 108.342 193.471 108.342zM334.731 44.424c-18.532 0-33.554-15.023-33.554-33.554s15.023-33.554 33.554-33.554c18.532 0 33.554 15.023 33.554 33.554s-15.023 33.554-33.554 33.554zM495.54 44.424c-18.532 0-33.554-15.023-33.554-33.554s15.023-33.554 33.554-33.554c18.532 0 33.554 15.023 33.554 33.554s-15.023 33.554-33.554 33.554zM71.201 250.401c-18.532 0-33.554-15.023-33.554-33.554s15.023-33.554 33.554-33.554c18.532 0 33.554 15.023 33.554 33.554s-15.023 33.554-33.554 33.554zM776.61 250.401c-18.532 0-33.554-15.023-33.554-33.554s15.023-33.554 33.554-33.554c18.532 0 33.554 15.023 33.554 33.554s-15.023 33.554-33.554 33.554zM429.41 929.882c-67.512 0-129.082-34.252-165.084-89.674l-2.719-4.305-12.201-19.878-22.299 6.839c-13.801 4.233-28.243 6.41-43.013 6.41-80.88 0-146.447-65.567-146.447-146.447 0-78.097 61.219-142.14 138.196-146.232l4.139-0.162 4.112-0.057 522.266 0.047c57.716 1.642 103.804 48.981 103.804 106.873 0 59.049-47.869 106.918-106.918 106.918-11.887 0-23.459-1.929-34.396-5.657l-4.647-1.707-34.611-13.651-6.144 36.695c-15.75 94.074-97.572 163.987-194.040 163.987zM432.248 637.618c16.312 0 29.536-13.224 29.536-29.536s-13.224-29.536-29.536-29.536c-16.312 0-29.536 13.224-29.536 29.536s13.224 29.536 29.536 29.536zM432.248 721.23c16.064 0 31.686-3.162 46.391-9.392 12.621-5.313 24.093-12.699 34.172-21.96l3.714-3.56-35.798-35.766c-12.966 12.934-30.2 20.081-48.51 20.081-17.532 0-33.935-6.474-46.662-18.315l-2.67-2.619-36.367 35.165c11.005 11.384 23.907 20.334 38.359 26.595 14.99 6.483 30.928 9.772 47.372 9.772zM432.248 803.388c27.006 0 53.253-5.281 77.952-15.654 21.857-9.189 41.721-22.019 59.032-38.148l4.657-4.48-35.608-35.956c-28.43 28.145-66.093 43.64-106.097 43.64-20.366 0-40.099-3.985-58.662-11.827-16.137-6.831-30.815-16.325-43.686-28.253l-4.223-4.066-35.766 35.766c18.5 18.468 40.035 32.983 64.006 43.134 24.856 10.531 51.23 15.843 78.395 15.843z" />
<glyph unicode="&#xe90b;" glyph-name="LinkedIn" horiz-adv-x="1122" d="M1094.463 332.714v-394.381h-229.133v367.967c0 92.436-33.142 155.521-116.080 155.521-63.313 0-100.991-42.514-117.567-83.639-6.045-14.702-7.601-35.166-7.601-55.746v-384.103h-229.21c0 0 3.087 623.216 0 687.786h229.188v-97.491c-0.465-0.729-1.069-1.515-1.506-2.222h1.506v2.222c30.45 46.797 84.83 113.649 206.55 113.649 150.803 0 263.853-98.302 263.853-309.563zM155.108 957.666c-78.413 0-129.701-51.321-129.701-118.81 0-66.018 49.804-118.897 126.659-118.897h1.531c79.931 0 129.641 52.869 129.641 118.897-1.506 67.489-49.71 118.81-128.13 118.81zM39.020-61.666h229.123v687.786h-229.123v-687.786z" />
<glyph unicode="&#xe90c;" glyph-name="Location" horiz-adv-x="807" d="M406.435 952.242c207.498 0 376.262-168.763 376.262-376.26 0-111.508-60.399-248.096-161.347-399.19-35.268-52.788-73.297-103.892-111.739-151.63l-17.244-21.161c-16.368-19.841-29.984-35.623-39.713-46.457-24.667-27.474-67.757-27.49-92.437-0.002l-10.983 12.452c-12.195 14.035-27.897 32.72-45.974 55.169-38.442 47.738-76.471 98.842-111.739 151.63-100.948 151.094-161.347 287.683-161.347 399.19 0 207.498 168.763 376.26 376.262 376.26zM406.435 890.182c-173.224 0-314.201-140.977-314.201-314.199 0-95.833 56.28-223.106 150.89-364.714 34.165-51.137 71.117-100.793 108.473-147.183l18.125-22.222c13.284-16.069 24.569-29.225 33.159-38.919l3.514-3.941 3.534 3.941c12.332 13.848 30.103 34.763 51.344 61.141 37.356 46.389 74.308 96.046 108.473 147.183 94.61 141.608 150.89 268.88 150.89 364.714 0 173.222-140.978 314.199-314.201 314.199zM406.435 780.706c112.911 0 204.721-91.812 204.721-204.725s-91.809-204.723-204.721-204.723c-112.913 0-204.723 91.811-204.723 204.725s91.811 204.723 204.723 204.723zM406.435 718.645c-78.637 0-142.662-64.025-142.662-142.662 0-78.639 64.025-142.664 142.662-142.664 78.636 0 142.661 64.025 142.661 142.662s-64.025 142.664-142.661 142.664z" />
<glyph unicode="&#xe90d;" glyph-name="Machine-Learning" horiz-adv-x="1007" d="M526.027 943.614l-0.010-201.443h74.634l0.015 110.793h31.425l-0.015-110.793h93.117c44.501 0 80.577-36.076 80.577-80.577v-98.321l110.793-0.014v-31.425l-110.793 0.014v-74.651l201.443-0.002v-31.425l-201.443 0.002v-67.92l55.282 0.005c6.798 23.271 28.294 40.27 53.761 40.27 30.929 0 56.001-25.073 56.001-56.001s-25.073-56.001-56.001-56.001c-25.473 0-46.974 17.008-53.766 40.287l-55.278 0.015v-108.007c0-44.501-36.076-80.577-80.577-80.577h-93.117l0.015-106.362h-31.425l-0.015 106.362h-74.634l0.010-197.011h-31.425l-0.010 197.011h-67.937l0.035-50.851c23.271-6.798 40.27-28.294 40.27-53.761 0-30.929-25.073-56.001-56.001-56.001s-56.001 25.073-56.001 56.001c0 25.473 17.008 46.974 40.287 53.766l-0.014 50.846h-113.211c-44.501 0-80.577 36.076-80.577 80.577v108.007l-55.278-0.015c-6.792-23.279-28.293-40.287-53.766-40.287-30.929 0-56.001 25.073-56.001 56.001s25.073 56.001 56.001 56.001c24.36 0 45.087-15.553 52.792-37.271l0.969-2.999 55.282-0.005v67.92l-201.443-0.002v31.425l201.443 0.002v74.651l-110.793-0.014v31.425l110.793 0.014v98.321c0 44.501 36.076 80.577 80.577 80.577h113.211l0.014 55.278c-23.279 6.792-40.287 28.293-40.287 53.766 0 30.929 25.073 56.001 56.001 56.001s56.001-25.073 56.001-56.001c0-24.36-15.553-45.087-37.271-52.792l-2.999-0.969-0.035-55.282h67.937l0.010 201.443h31.425zM410.959 57.807c-13.573 0-24.576-11.003-24.576-24.576s11.003-24.576 24.576-24.576c13.573 0 24.576 11.003 24.576 24.576s-11.003 24.576-24.576 24.576zM725.193 710.695h-443.174c-26.033 0-47.335-20.26-48.997-45.873l-0.104-3.228v-443.174c0-26.033 20.26-47.335 45.873-48.997l3.228-0.104h443.174c26.033 0 47.335 20.26 48.997 45.873l0.104 3.228v443.174c0 26.033-20.26 47.335-45.873 48.997l-3.228 0.104zM568.92 647.045c37.929 0 68.677-33.119 68.677-73.973 0-5.983-0.66-11.801-1.933-17.33 50.402-11.676 88.18-59.951 88.18-117.729 0-48.218-26.31-89.816-64.294-109.032 0.348-3.259 0.526-6.573 0.526-9.932 0-47.54-35.78-86.079-79.917-86.079-27.098 0-51.046 14.527-65.5 36.748-14.412-22.221-38.36-36.748-65.458-36.748-44.137 0-79.917 38.539-79.917 86.079 0 3.359 0.179 6.673 0.526 9.932-37.985 19.215-64.294 60.814-64.294 109.032 0 57.779 37.778 106.053 88.18 117.729-1.273 5.53-1.933 11.347-1.933 17.33 0 40.854 30.748 73.973 68.677 73.973 22.062 0 41.694-11.205 54.259-28.62 12.526 17.415 32.158 28.62 54.22 28.62zM460.441 616.829c-20.719 0-38.461-19.11-38.461-43.757 0-2.455 0.176-4.848 0.521-7.155l0.641-3.393 6.773-29.407-29.399-6.811c-37.118-8.599-64.783-45.059-64.783-88.293 0-34.305 17.455-64.815 44.037-80.083l3.681-1.986 18.619-9.419-2.213-20.749c-0.236-2.216-0.356-4.46-0.356-6.727 0-31.333 22.774-55.863 49.7-55.863 14.761 0 28.597 7.331 38.014 19.965l2.093 3.009 10.248 15.815 0.004 115.529c-54.484-4.083-86.336 17.318-87.934 62.854l-0.063 3.647v15.108h30.216v-15.108l0.065-3.024c1.153-26.35 17.861-36.962 57.702-33.179l0.011 139.97-9.361 12.975c-7.388 10.24-18.23 16.083-29.755 16.083zM568.92 616.829c-10.473 0-20.373-4.825-27.603-13.372l-2.087-2.675-9.457-13.128 0.019-214.22c38.615-3.321 54.862 7.362 55.999 33.333l0.065 3.024v15.108h30.216v-15.108c0-47.543-31.421-70.222-86.277-66.622l-0.023-41.279 10.216-15.697c9.433-14.501 24.272-23.008 40.171-23.008 26.927 0 49.7 24.53 49.7 55.863l-0.089 3.383-0.266 3.345-2.213 20.749 18.619 9.419c28.64 14.488 47.718 46.205 47.718 82.069 0 41.743-25.79 77.171-60.978 87.305l-3.805 0.988-29.399 6.811 6.773 29.407c0.765 3.323 1.162 6.867 1.162 10.549 0 24.647-17.742 43.757-38.461 43.757zM92.399 366.702c-13.573 0-24.576-11.003-24.576-24.576s11.003-24.576 24.576-24.576c13.573 0 24.576 11.003 24.576 24.576s-11.003 24.576-24.576 24.576zM914.814 366.702c-13.573 0-24.576-11.003-24.576-24.576s11.003-24.576 24.576-24.576c13.573 0 24.576 11.003 24.576 24.576s-11.003 24.576-24.576 24.576zM410.959 875.791c-13.573 0-24.576-11.003-24.576-24.576s11.003-24.576 24.576-24.576c13.573 0 24.576 11.003 24.576 24.576s-11.003 24.576-24.576 24.576z" />
<glyph unicode="&#xe90e;" glyph-name="close" d="M53.542 953.952l4.727-3.95 442.679-442.65 442.704 442.65c13.33 13.33 34.942 13.33 48.272 0 11.849-11.849 13.165-30.242 3.95-43.545l-3.95-4.727-442.711-442.643 442.711-442.74c13.33-13.33 13.33-34.942 0-48.272-11.849-11.849-30.241-13.165-43.544-3.95l-4.727 3.95-442.704 442.748-442.679-442.748c-13.33-13.33-34.942-13.33-48.272 0-11.849 11.849-13.165 30.241-3.95 43.545l3.95 4.727 442.687 442.74-442.687 442.643c-13.33 13.33-13.33 34.942 0 48.272 10.368 10.368 25.746 12.672 38.34 6.912l5.205-2.962z" />
<glyph unicode="&#xe90f;" glyph-name="close1" d="M53.542 953.952l4.727-3.95 442.679-442.65 442.704 442.65c13.33 13.33 34.942 13.33 48.272 0 11.849-11.849 13.165-30.242 3.95-43.545l-3.95-4.727-442.711-442.643 442.711-442.74c13.33-13.33 13.33-34.942 0-48.272-11.849-11.849-30.241-13.165-43.544-3.95l-4.727 3.95-442.704 442.748-442.679-442.748c-13.33-13.33-34.942-13.33-48.272 0-11.849 11.849-13.165 30.241-3.95 43.545l3.95 4.727 442.687 442.74-442.687 442.643c-13.33 13.33-13.33 34.942 0 48.272 10.368 10.368 25.746 12.672 38.34 6.912l5.205-2.962z" />
<glyph unicode="&#xe910;" glyph-name="mail" horiz-adv-x="1479" d="M952.099 463.003c-13.252 13.009-13.252 34.101 0 47.11s34.738 13.009 47.99 0l239.532-235.141c13.252-13.009 13.252-34.101 0-47.11s-34.738-13.009-47.99 0l-239.532 235.141zM512.957 510.113c13.252 13.009 34.738 13.009 47.99 0s13.252-34.101 0-47.11l-239.532-235.141c-13.252-13.009-34.738-13.009-47.99 0s-13.252 34.101 0 47.11l239.532 235.141zM161.837 889.364c-28.663 0-51.899-22.81-51.899-50.947v-783.802c0-28.137 23.236-50.947 51.899-50.947h1197.661c28.663 0 51.899 22.81 51.899 50.947v783.802c0 28.137-23.236 50.947-51.899 50.947h-1197.661zM161.837 955.988h1197.661c66.145 0 119.766-52.638 119.766-117.57v-783.802c0-64.932-53.621-117.57-119.766-117.57h-1197.661c-66.145 0-119.766 52.638-119.766 117.57v783.802c0 64.932 53.621 117.57 119.766 117.57zM1351.624 903.019l98.76 0.914-580.593-540.5c-72.93-68.594-139.5-70.535-220.662-2.041-3.195 2.696-193.856 179.309-571.984 529.837l98.841 0.914c323.582-299.95 515.312-477.546 517.066-479.026 55.141-46.535 83.257-46.145 131.407-0.859l527.164 490.761z" />
<glyph unicode="&#xe911;" glyph-name="microservice" d="M717.036 324.878l-36.353 36.355c6.061 10.808 11.012 22.158 14.807 33.927h53.383c8.206 0 14.855 6.649 14.855 14.855v85.873c0 8.206-6.649 14.855-14.855 14.855h-53.385c-3.795 11.767-8.747 23.116-14.807 33.925l36.353 36.355c5.801 5.801 5.801 15.206 0 21.005l-55.827 55.831c-2.787 2.785-6.564 4.35-10.505 4.35s-7.717-1.565-10.505-4.35l-37.759-37.761c-8.972 4.603-18.289 8.467-27.866 11.559v53.385c0 8.206-6.649 14.855-14.855 14.855h-78.951c-8.206 0-14.855-6.649-14.855-14.855v-51.402c-11.904-3.357-23.425-7.885-34.448-13.542l-37.759 37.761c-2.787 2.785-6.564 4.35-10.505 4.35s-7.717-1.565-10.505-4.35l-55.827-55.831c-5.801-5.801-5.801-15.206 0-21.005l36.353-36.355c-6.061-10.808-11.012-22.158-14.807-33.925h-53.383c-8.206 0-14.855-6.649-14.855-14.855v-85.873c0-8.206 6.649-14.855 14.855-14.855h53.383c3.795-11.769 8.747-23.118 14.807-33.927l-36.353-36.355c-5.801-5.801-5.801-15.206 0-21.007l55.827-55.827c5.801-5.797 15.207-5.801 21.007 0l37.761 37.759c11.020-5.655 22.544-10.185 34.448-13.542v-51.402c0-8.206 6.649-14.855 14.855-14.855h78.951c8.206 0 14.855 6.649 14.855 14.855v53.385c9.576 3.092 18.893 6.956 27.866 11.559l37.761-37.759c5.799-5.799 15.206-5.799 21.007 0l55.827 55.827c5.805 5.801 5.805 15.206 0.006 21.007v0zM650.703 279.557l-35.161 35.159c-4.803 4.801-12.252 5.74-18.091 2.266-12.948-7.693-26.878-13.47-41.402-17.172-6.582-1.678-11.187-7.604-11.187-14.395v-49.699h-49.243v48.168c0 7.012-4.902 13.068-11.759 14.528-16.723 3.565-32.675 9.812-47.413 18.569-5.839 3.474-13.29 2.537-18.091-2.266l-35.161-35.159-34.818 34.818 34.067 34.069c4.956 4.956 5.774 12.702 1.959 18.585-9.335 14.399-16.21 30.096-20.427 46.654-1.678 6.582-7.604 11.187-14.395 11.187h-49.699v56.164h49.703c6.792 0 12.718 4.605 14.395 11.187 4.221 16.556 11.094 32.253 20.427 46.652 3.815 5.883 2.997 13.629-1.959 18.585l-34.067 34.069 34.818 34.82 35.159-35.161c4.803-4.801 12.25-5.736 18.093-2.266 14.736 8.756 30.688 15.003 47.413 18.569 6.857 1.46 11.759 7.517 11.759 14.528v48.168h49.241v-49.699c0-6.792 4.605-12.718 11.187-14.395 14.524-3.702 28.454-9.479 41.402-17.172 5.835-3.472 13.286-2.535 18.093 2.266l35.159 35.161 34.818-34.82-34.067-34.069c-4.956-4.956-5.774-12.702-1.959-18.585 9.335-14.399 16.208-30.094 20.427-46.652 1.678-6.582 7.604-11.187 14.395-11.187h49.699v-56.164h-49.701c-6.792 0-12.718-4.605-14.395-11.187-4.219-16.556-11.094-32.255-20.427-46.654-3.815-5.883-2.997-13.629 1.959-18.585l34.067-34.069-34.818-34.814zM516.952 527.83c-3.811 0-7.635-0.289-11.367-0.86-8.111-1.238-13.68-8.816-12.442-16.927 1.238-8.113 8.822-13.68 16.927-12.442 2.254 0.345 4.569 0.519 6.885 0.519 24.905 0 45.169-20.262 45.169-45.169s-20.262-45.169-45.169-45.169c-24.907 0-45.169 20.262-45.169 45.169 0 2.329 0.176 4.662 0.527 6.93 1.246 8.109-4.318 15.693-12.425 16.941-8.107 1.254-15.693-4.314-16.941-12.425-0.578-3.757-0.87-7.61-0.87-11.444 0-41.289 33.59-74.879 74.879-74.879s74.879 33.59 74.879 74.879c0 41.289-33.594 74.877-74.883 74.877v0zM919.11 960c8.206 0 14.855-6.649 14.855-14.855v0-25.251c21.977-10.383 39.546-27.951 49.928-49.928v0h25.251c8.206 0 14.855-6.649 14.855-14.855v0-60.024c0-8.206-6.649-14.855-14.855-14.855v0h-25.249c-10.385-21.979-27.951-39.546-49.93-49.93v0-25.251c0-8.206-6.649-14.855-14.855-14.855v0h-60.024c-8.206 0-14.855 6.649-14.855 14.855v0 25.249c-21.979 10.385-39.548 27.953-49.932 49.932v0h-25.249c-8.206 0-14.855 6.649-14.855 14.855v0 60.024c0 8.206 6.649 14.855 14.855 14.855v0h25.251c10.385 21.979 27.951 39.546 49.93 49.93v0 25.249c0 8.206 6.649 14.855 14.855 14.855v0zM889.099 869.965c-24.738 0-44.866-20.127-44.866-44.866s20.127-44.866 44.866-44.866c24.738 0 44.866 20.127 44.866 44.866s-20.127 44.866-44.866 44.866zM889.099 840.253c8.356 0 15.156-6.8 15.156-15.156s-6.8-15.156-15.156-15.156c-8.358 0-15.156 6.8-15.156 15.156s6.8 15.156 15.156 15.156zM919.11 215.273c8.206 0 14.855-6.649 14.855-14.855v0-25.251c21.977-10.383 39.546-27.951 49.928-49.928v0h25.251c8.206 0 14.855-6.649 14.855-14.855v0-60.024c0-8.206-6.649-14.855-14.855-14.855v0h-25.249c-10.385-21.979-27.951-39.546-49.93-49.93v0-25.251c0-8.206-6.649-14.855-14.855-14.855v0h-60.024c-8.206 0-14.855 6.649-14.855 14.855v0 25.249c-21.979 10.385-39.548 27.953-49.932 49.932v0h-25.249c-8.206 0-14.855 6.649-14.855 14.855v0 60.024c0 8.206 6.649 14.855 14.855 14.855v0h25.251c10.385 21.979 27.951 39.546 49.93 49.93v0 25.249c0 8.206 6.649 14.855 14.855 14.855v0zM889.099 125.238c-24.738 0-44.866-20.127-44.866-44.866s20.127-44.866 44.866-44.866c24.738 0 44.866 20.127 44.866 44.866s-20.127 44.866-44.866 44.866zM889.099 95.526c8.356 0 15.156-6.8 15.156-15.156s-6.8-15.156-15.156-15.156c-8.358 0-15.156 6.8-15.156 15.156s6.8 15.156 15.156 15.156zM166.46 960c8.206 0 14.855-6.649 14.855-14.855v0-25.251c21.977-10.383 39.546-27.951 49.928-49.928v0h25.251c8.206 0 14.855-6.649 14.855-14.855v0-60.024c0-8.206-6.649-14.855-14.855-14.855v0h-25.249c-10.385-21.979-27.951-39.546-49.93-49.93v0-25.251c0-8.206-6.649-14.855-14.855-14.855v0h-60.024c-8.206 0-14.855 6.649-14.855 14.855v0 25.249c-21.979 10.385-39.548 27.953-49.932 49.932v0h-25.249c-8.206 0-14.855 6.649-14.855 14.855v0 60.024c0 8.206 6.649 14.855 14.855 14.855v0h25.251c10.385 21.979 27.951 39.546 49.93 49.93v0 25.249c0 8.206 6.649 14.855 14.855 14.855v0zM136.449 869.965c-24.738 0-44.866-20.127-44.866-44.866s20.127-44.866 44.866-44.866c24.738 0 44.866 20.127 44.866 44.866s-20.127 44.866-44.866 44.866zM136.449 840.253c8.356 0 15.156-6.8 15.156-15.156s-6.8-15.156-15.156-15.156c-8.358 0-15.156 6.8-15.156 15.156s6.8 15.156 15.156 15.156zM174.817 215.708c8.206 0 14.855-6.649 14.855-14.855v0-25.249c21.979-10.385 39.548-27.953 49.932-49.932v0h25.249c8.204 0 14.855-6.651 14.855-14.855v0-60.024c0-8.206-6.649-14.855-14.855-14.855v0h-25.251c-10.385-21.979-27.951-39.546-49.93-49.93v0-25.249c0-8.206-6.649-14.855-14.855-14.855v0h-60.024c-8.206 0-14.855 6.649-14.855 14.855v0 25.251c-21.977 10.383-39.546 27.951-49.928 49.928v0h-25.251c-8.206 0-14.855 6.649-14.855 14.855v0 60.024c0 8.206 6.649 14.855 14.855 14.855v0h25.249c10.385 21.979 27.951 39.546 49.93 49.93v0 25.251c0 8.206 6.649 14.855 14.855 14.855v0zM144.804 125.672c-24.738 0-44.866-20.127-44.866-44.866s20.127-44.866 44.866-44.866c24.738 0 44.866 20.127 44.866 44.866s-20.125 44.866-44.866 44.866zM144.804 95.96c8.356 0 15.156-6.8 15.156-15.156s-6.798-15.156-15.156-15.156c-8.358 0-15.156 6.8-15.156 15.156s6.8 15.156 15.156 15.156zM255.35 735.564c-5.803 5.799-15.207 5.799-21.009 0-5.801-5.803-5.801-15.207 0-21.009l42.667-42.667h-12.155c-8.206 0-14.855-6.649-14.855-14.855s6.649-14.855 14.855-14.855h48.019c8.087 0 14.863 6.776 14.855 14.865v48.007c0 8.206-6.649 14.855-14.855 14.855s-14.855-6.649-14.855-14.855v-12.155l-42.667 42.669zM706.251 655.561c0.739-7.491 7.257-13.385 14.782-13.385h48.019c8.206 0 14.855 6.649 14.855 14.855s-6.649 14.855-14.855 14.855h-12.155l42.667 42.667c5.801 5.803 5.801 15.207 0 21.009-5.803 5.799-15.207 5.799-21.009 0l-42.667-42.667v12.155c0 8.206-6.649 14.855-14.855 14.855s-14.855-6.649-14.855-14.855v-48.009c-0.002-0.493 0.024-0.988 0.073-1.48v0zM327.654 254.339c-0.737 7.503-7.265 13.387-14.782 13.387h-48.019c-8.206 0-14.855-6.649-14.855-14.855s6.649-14.855 14.855-14.855h12.155l-42.667-42.665c-5.803-5.803-5.803-15.207-0.002-21.007 2.902-2.902 6.703-4.352 10.505-4.352 3.801 0 7.604 1.45 10.503 4.35l42.669 42.667v-12.155c0-8.206 6.649-14.855 14.855-14.855s14.855 6.649 14.855 14.855v48.011c0 0.493-0.026 0.984-0.073 1.474v0zM778.555 174.342c2.9-2.9 6.703-4.35 10.503-4.35s7.604 1.45 10.505 4.352c5.801 5.801 5.801 15.206-0.002 21.007l-42.667 42.665h12.155c8.206 0 14.855 6.649 14.855 14.855s-6.649 14.855-14.855 14.855h-48.019c-8.073 0-14.859-6.764-14.855-14.861v-48.011c0-8.206 6.649-14.855 14.855-14.855s14.855 6.649 14.855 14.855v12.155l42.669-42.667z" />
<glyph unicode="&#xe912;" glyph-name="Menu" horiz-adv-x="1331" d="M1305.6 28.16v-81.92h-1280v81.92h1280zM1305.6 488.96v-81.92h-1280v81.92h1280zM1305.6 949.76v-81.92h-1280v81.92h1280z" />
<glyph unicode="&#xe913;" glyph-name="Migration-Strategies" horiz-adv-x="1134" d="M575.329 960c151.234 0 276.772-110.017 300.947-254.383 20.86 8.217 43.594 12.722 67.379 12.722 101.797 0 184.32-82.523 184.32-184.32 0-100.231-80.003-181.776-179.636-184.262l-4.684-0.058-56.73 0.013 0.016-261.687h102.227l-29.995 37.483 22.143 17.714 60.738-75.923-62.952-62.952-20.051 20.051 35.238 35.269h-135.704l-0.016 290.044h-104.322l0.003-407.144h-372.647l-0.013 407.144h-118.516l0.016-290.044h-141.785v28.357h113.428l-0.006 261.908c-126.224 5.565-226.849 109.659-226.849 237.255 0 131.162 106.328 237.489 237.489 237.489 24.262 0 47.674-3.638 69.721-10.399 53.666 87.416 150.145 145.722 260.242 145.722zM628.793 169.206l-89.224-89.22-32.51 32.506-20.051-20.051 52.561-52.561 109.275 109.275-20.051 20.051zM584.958 282.722h-124.753v-28.357h124.753v28.357zM681.354 349.712h-221.152l0.003-27.057h221.149v27.057zM575.329 931.643c-95.417 0-182.416-48.646-232.964-127.249l-3.112-4.952-11.488-18.712-20.992 6.437c-19.711 6.044-40.334 9.153-61.407 9.153-115.501 0-209.132-93.632-209.132-209.132 0-111.862 87.927-203.475 198.484-208.876l-0.001 98.344-45.549-33.249-16.716 22.906 79.224 57.812 74.475-59.58-17.714-22.143-45.363 36.285v-100.62h118.516l0.013 109.742h372.647l-0.003-109.742h104.322l0.016 135.31h28.357l-0.016-135.31 60.707 0.036c84.44 2.106 151.986 71.257 151.986 155.914 0 86.136-69.827 155.963-155.963 155.963-17.599 0-34.751-2.905-50.956-8.518l-6.031-2.231-32.577-12.832-5.783 34.532c-22.165 132.364-137.266 230.71-272.979 230.71zM681.354 421.218h-221.149v-28.357h221.149v28.357zM650.423 853.498c7.26-2.933 10.768-11.197 7.835-18.457s-11.197-10.768-18.457-7.835c-46.891 18.945-99.048 14.084-141.319-11.931-28.332-17.436-50.464-43.36-63.2-74.883-2.933-7.26-11.197-10.768-18.457-7.835s-10.768 11.197-7.835 18.457c15.023 37.184 41.184 67.827 74.63 88.41 49.863 30.687 111.47 36.429 166.804 14.073z" />
<glyph unicode="&#xe914;" glyph-name="Mobile-Apps" horiz-adv-x="583" d="M484.978 957.156c50.27 0 91.022-40.752 91.022-91.022v-836.267c0-50.27-40.752-91.022-91.022-91.022h-386.844c-50.27 0-91.022 40.752-91.022 91.022v836.267c0 50.27 40.752 91.022 91.022 91.022h386.844zM484.978 934.4h-386.844c-36.846 0-66.874-29.191-68.22-65.707l-0.047-2.559v-836.267c0-36.846 29.191-66.874 65.707-68.22l2.559-0.047h386.844c36.846 0 66.874 29.191 68.22 65.707l0.047 2.559v836.267c0 36.846-29.191 66.874-65.707 68.22l-2.559 0.047zM291.556 79.918c24.374 0 44.133-19.759 44.133-44.133s-19.759-44.133-44.133-44.133c-24.374 0-44.133 19.759-44.133 44.133s19.759 44.133 44.133 44.133zM135.087 449.696l-0.010-159.289h307.462l0.001 159.289h22.756v-182.044h-352.964v182.044h22.756zM300.191 580.54l-0.002-160.672 36.392 29.1 14.215-17.769-59.764-47.811-63.575 46.393 13.414 18.382 36.562-26.673 0.002 159.050h22.756zM356.289 836.54v-22.756h-129.467v22.756h129.467zM291.556 893.687c10.664 0 19.308-8.645 19.308-19.308s-8.645-19.308-19.308-19.308c-10.664 0-19.308 8.645-19.308 19.308s8.645 19.308 19.308 19.308z" />
<glyph unicode="&#xe915;" glyph-name="Mobility" horiz-adv-x="622" d="M501.961 950.355c66.534 0 120.471-53.937 120.471-120.471v-766.826c0-66.534-53.937-120.471-120.471-120.471h-381.49c-66.534 0-120.471 53.937-120.471 120.471v766.826c0 66.534 53.937 120.471 120.471 120.471h381.49zM501.961 918.229h-381.49c-47.357 0-86.010-37.261-88.243-84.065l-0.102-4.28v-766.826c0-47.357 37.261-86.010 84.065-88.243l4.28-0.102h381.49c47.357 0 86.010 37.261 88.243 84.065l0.102 4.28v766.826c0 47.357-37.261 86.010-84.065 88.243l-4.28 0.102zM311.216 118.681c28.489 0 51.583-23.095 51.583-51.583s-23.095-51.583-51.583-51.583c-28.489 0-51.583 23.095-51.583 51.583s23.095 51.583 51.583 51.583zM537.303 787.895v-637.657h-455.955v637.657h455.955zM505.173 755.775h-391.71v-573.4h391.71v573.4zM417.62 648.17l23.492-15.437-233.359-355.129-23.492 15.437 233.359 355.129zM401.569 859.608c11.089 0 20.078-8.989 20.078-20.078s-8.989-20.078-20.078-20.078h-160.627c-11.089 0-20.078 8.989-20.078 20.078s8.989 20.078 20.078 20.078h160.627z" />
<glyph unicode="&#xe916;" glyph-name="Scroll" horiz-adv-x="768" d="M413.018 937.356l-0.003-848.347 297.006 268.030 51.72-51.72-375.324-338.753-39.998 40.011-332.507 307.006 49.62 53.738 276.345-255.141v825.177z" />
<glyph unicode="&#xe917;" glyph-name="Search" d="M167.543 817.668c170.158 170.158 446.038 170.158 616.196 0 160.41-160.41 169.599-414.776 27.568-585.951l203.746-197.502-61.292-60.332-202.704 198.013c-171.145-139.933-423.864-130.075-583.514 29.576-170.158 170.158-170.158 446.038 0 616.196zM728.571 762.5c-139.69 139.69-366.171 139.69-505.861 0s-139.69-366.171 0-505.861c139.69-139.69 366.171-139.69 505.861 0s139.69 366.171 0 505.861z" />
<glyph unicode="&#xe918;" glyph-name="Slideshare" horiz-adv-x="986" d="M831.261 933.452c48.28 0 87.507-42.152 87.507-94.312v0-375.726c3.721 2.527 7.451 5.064 11.192 7.74 29.010 20.225 48.012-7.322 30.214-33.636-34.581-42.401-100.39-95.058-201.288-136.484 106.986-363.618-260.532-421.37-254.921-234.934 0-3.138-0.156 86.634-0.306 161.191l-0.032 15.704c-7.869 1.94-16.226 4.158-25.876 6.427-0.149-77.499-0.358-186.783-0.358-183.321l0.053-5.929c-2.276-179.229-360.554-118.845-254.964 240.864-100.888 41.426-166.687 94.083-201.298 136.484-17.778 26.324 1.234 53.871 30.234 33.636 3.91-2.796 7.81-5.452 11.69-8.088v0 376.074c0 52.16 39.227 94.312 87.497 94.312v0h680.658zM794.73 883.252h-602.423c-60.447 0-77.27-20.713-77.27-86.751v0-364.534c128.356-67.252 238.565-55.304 298.784-53.433 25.259 1.254 41.525-4.328 51.374-14.714 1.731-1.452 3.532-3.004 5.412-4.775 11.331-10.516 22.374-19.658 33.188-27.339 2.219 29.776 18.862 49.096 63.79 46.828 61.104-1.92 173.761-14.256 304.634 56.478v0 361.489c0 62.138-20.215 86.751-77.489 86.751v0zM633.395 641.98c64.576 0 116.975-48.977 116.975-109.424s-52.399-109.424-116.975-109.424c-64.586 0-117.005 48.977-117.005 109.424s52.419 109.424 117.005 109.424zM361.154 641.98c64.598 0 116.965-48.991 116.965-109.424s-52.367-109.424-116.965-109.424c-64.598 0-116.965 48.991-116.965 109.424s52.367 109.424 116.965 109.424z" />
<glyph unicode="&#xe919;" glyph-name="twitter" horiz-adv-x="1170" d="M1174.334 805.717c-42.158-18.817-87.392-31.578-134.92-37.276 48.529 29.273 85.676 75.703 103.282 130.859-45.521-27.108-95.768-46.793-149.307-57.463-42.873 46.071-103.855 74.766-171.495 74.766-129.765 0-234.981-105.985-234.981-236.627 0-18.529 2.076-36.625 6.085-53.93-195.257 9.879-368.396 104.111-484.276 247.299-20.256-34.896-31.78-75.558-31.78-118.963 0-82.121 41.514-154.58 104.501-196.972-38.508 1.297-74.725 11.968-106.432 29.704v-2.956c0-114.636 81.023-210.31 188.457-232.085-19.684-5.335-40.44-8.291-61.913-8.291-15.173 0-29.846 1.514-44.233 4.398 29.918-94.089 116.668-162.509 219.451-164.385-80.38-63.447-181.73-101.155-291.812-101.155-18.967 0-37.649 1.154-56.043 3.245 103.999-67.269 227.467-106.49 360.167-106.49 432.242 0 668.513 360.637 668.513 673.398l-0.788 30.641c46.165 33.168 86.103 74.84 117.525 122.281z" />
<glyph unicode="&#xe91a;" glyph-name="Video-Analytics" horiz-adv-x="1360" d="M1360 488.187v-537.225h-793.6v537.225h793.6zM1108.050 340.175c-24.964 0-45.431-19.259-47.353-43.729l-0.137-2.74-142.681-110.842c-8.556 12.505-22.935 20.71-39.23 20.71-14.738 0-27.908-6.712-36.621-17.246l-1.798-2.315-111.627 82.83c1.841 5.064 2.845 10.53 2.845 16.231 0 26.234-21.267 47.5-47.5 47.5s-47.5-21.267-47.5-47.5c0-26.234 21.267-47.5 47.5-47.5 10.007 0 19.292 3.095 26.949 8.379l2.793 2.083 117.536-87.218c-0.052-0.908-0.078-1.823-0.078-2.744 0-25.297 19.775-45.975 44.709-47.42l2.791-0.081 2.791 0.081c24.011 1.391 43.237 20.618 44.629 44.629l0.081 2.791-0.021 0.805 141.91 110.184c8.445-13.165 23.209-21.889 40.011-21.889 7.847 0 15.249 1.903 21.771 5.272l2.74 1.532 45.701-40.536c-3.288-6.46-5.142-13.773-5.142-21.518 0-26.234 21.267-47.5 47.5-47.5s47.5 21.267 47.5 47.5c0 26.234-21.267 47.5-47.5 47.5-8.040 0-15.613-1.997-22.251-5.523l-2.786-1.603-45.452 40.323c3.461 6.59 5.419 14.094 5.419 22.054 0 26.234-21.267 47.5-47.5 47.5zM1001.6 960c71.118 0 129.020-56.585 131.14-127.189l0.060-4.011v-268.8h-32v268.8c0 53.569-42.461 97.221-95.563 99.135l-3.637 0.065h-870.4c-53.569 0-97.221-42.461-99.135-95.563l-0.065-3.637v-438.025c0-53.569 42.461-97.221 95.563-99.135l3.637-0.065h348.8v-32h-348.8c-71.118 0-129.020 56.585-131.14 127.189l-0.060 4.011v438.025c0 71.118 56.585 129.020 127.189 131.14l4.011 0.060h870.4zM176 744.187l153.6-115.2-153.6-115.2v230.4zM598.4 686.587l-0.016-41.595 380.816-0.005v-32l-380.816 0.005 0.016-41.605h-64l-0.016 41.605-99.184-0.005v32l99.184 0.005 0.016 41.595h64z" />
<glyph unicode="&#xe91b;" glyph-name="youtube" horiz-adv-x="1401" d="M1345.344 844.903c-48.745 58.432-138.741 82.267-310.615 82.267h-623.9c-175.807 0-267.329-25.372-315.89-87.582-47.346-60.654-47.346-150.024-47.346-273.714v-235.752c0-239.626 56.176-361.291 363.237-361.291h623.905c149.048 0 231.639 21.032 285.071 72.598 54.795 52.879 78.174 139.218 78.174 288.693v235.752c0 130.441-3.663 220.338-52.635 279.029zM914.545 415.45l-283.311-149.312c-6.334-3.338-13.26-4.995-20.177-4.995-7.832 0-15.647 2.126-22.569 6.352-13.033 7.964-20.992 22.21-20.992 37.575v297.667c0 15.339 7.937 29.572 20.944 37.54 13.012 7.968 29.195 8.513 42.694 1.441l283.311-148.35c14.414-7.547 23.466-22.552 23.488-38.924 0.017-16.385-8.995-31.412-23.388-38.994z" />
<glyph unicode="&#xe91c;" glyph-name="back" horiz-adv-x="1401" d="M492.676 936.053l76.219-76.219-330.95-330.938 1155.156-0.054v-107.789h-1162.217l339.497-367.649-79.193-73.124-422.996 458.105-36.165 37.259 37.652 37.412z" />
</font>
</defs>
</svg>
